<?xml version="1.0" encoding="utf-8"?>
<!-- Generator: Adobe Illustrator 21.1.0, SVG Export Plug-In . SVG Version: 6.00 Build 0)  -->
<svg version="1.1" id="Camada_1" xmlns="http://www.w3.org/2000/svg" xmlns:xlink="http://www.w3.org/1999/xlink" x="0px" y="0px"
	 viewBox="0 0 623.7 161.9" style="enable-background:new 0 0 623.7 161.9;" xml:space="preserve">
<style type="text/css">
	.st0{fill:url(#SVGID_1_);}
	.st1{fill:#B90A12;}
</style>
<title>Logo_santri</title>
<g>
	
		<radialGradient id="SVGID_1_" cx="-53.9812" cy="244.455" r="111.1536" gradientTransform="matrix(0.815 -0.5794 -0.5794 -0.815 266.6551 209.8957)" gradientUnits="userSpaceOnUse">
		<stop  offset="7.142860e-02" style="stop-color:#BD0912"/>
		<stop  offset="0.3681" style="stop-color:#931618"/>
		<stop  offset="0.5266" style="stop-color:#8C1718"/>
		<stop  offset="0.7562" style="stop-color:#791816"/>
		<stop  offset="0.9011" style="stop-color:#691A15"/>
	</radialGradient>
	<path class="st0" d="M85.9,1.8c-63.4-3.4-83.8,57-59,65C44,72.3,67.4,34.2,96.4,23.5c23.4-8.6,41.8,3.1,47.8,11.7
		c25.6,36.1,17.2,86.1-18.9,111.7c-27.3,19.4-62.7,19.2-89.4,2.3c29,12.8,49.1-18.4,37.6-34.7c-13.8-19.4-34.9,0.9-58.9-12.6
		C0.8,94.2-2.4,75.1,1.6,60.3c4.8-17.2,15.2-32.9,30.9-44C48.6,4.8,67.6,0.2,85.9,1.8z"/>
	<g>
		<path class="st1" d="M184,53.3v0.5c0,11.1,5.7,24.3,32.9,24.3h9.1l8.3,0.2c13,0.3,13,0.5,13,8.1v0.7c0,4,0,7.1-14.5,7.1h-48.4
			v17.9h48.4c8.1,0,32.9,0,32.9-25v-0.7c0-25.5-18.7-25.9-31.1-26.3l-8.4-0.3h-9.3c-9.3,0-12.6-1.7-13.8-2.8c-0.5-0.4-0.5-0.6-0.6-1
			l-0.1-0.5c-0.2-0.4-0.2-1.2-0.2-1.7v-0.5c0-5.2,0-6.9,13-6.9h50.5V28.2h-50.5C206.5,28.2,184,28.2,184,53.3z"/>
		<path class="st1" d="M406.2,28.2h-0.4c-21.7,0-38.2,13.7-38.2,32v52.1h17.9V60.2c0-9.1,10.6-14,20.6-14c8.1,0,16.3,2.8,20.4,6.9
			c2.2,2.3,3.2,4.6,3.2,7.1v52.1h17.9V60.2c0-7.1-3-14.1-8.4-19.8C431.7,33,419,28.2,406.2,28.2z"/>
		<path class="st1" d="M353.3,60.2c0-6.2-2.3-12.4-6.5-17.6l-0.1-0.3v0.2c-0.6-0.7-1.2-1.4-1.8-2c-0.8-0.8-1.6-1.5-2.5-2.2
			c-7.8-6.6-18.7-9.7-29-9.7h-34.8v17.9h34.8c2.8,0,5.8,0.4,8.7,1.2c2.5,0.7,4.8,1.7,6.7,2.9c0.5,0.3,1,0.6,1.4,1h-19.9
			c-9,0-36.5,0-36.5,29.8v0.9c0,17.7,15.6,30.1,38.1,30.1c12.9,0,25.3-4.6,33.1-12.4c5.4-5.4,8.4-12.4,8.4-19.6v-2.4V63.3V61
			C353.3,60.7,353.3,60.4,353.3,60.2z M311.8,94.4c-4.7,0-20.1-0.9-20.1-12.1v-0.9c0-7.1,1.3-11.8,18.5-11.8h25V81l0,0
			c-0.2,2.3-1.2,4.3-3.1,6.2C328,91.6,319.8,94.4,311.8,94.4z"/>
		<path class="st1" d="M478,0.7h-17.3v77.5c0,23.1,20,33.7,40,33.9h2.8V94h-2.7c-3.8,0-22.6-0.8-22.6-15.9V45.5h25.4V27.3h-25.4V0.7
			H478z"/>
		<path class="st1" d="M516.7,62.5v49.8h17.9V62.5c0-12.3,13.8-15.6,21.9-15.6h35.2V28.9h-35.2C536.8,28.9,516.7,40.5,516.7,62.5z"
			/>
		<rect x="605" y="-0.1" class="st1" width="18.6" height="18.4"/>
		<rect x="605" y="28" class="st1" width="18.6" height="84.3"/>
	</g>
	<g>
		<path d="M197,134.4c-1.1,0-2,0.2-2.7,0.7c-0.7,0.5-1,1.1-1,2c0,0.9,0.4,1.6,1,2.1c0.7,0.5,2.2,1,4.5,1.5c2.3,0.6,4,1.3,5.2,2.3
			c1.2,1,1.7,2.5,1.7,4.4s-0.7,3.5-2.2,4.7s-3.4,1.8-5.8,1.8c-3.5,0-6.6-1.2-9.3-3.6l2.4-2.8c2.2,2,4.6,2.9,7,2.9
			c1.2,0,2.2-0.3,2.9-0.8s1.1-1.2,1.1-2.1s-0.3-1.5-1-2c-0.7-0.5-1.8-0.9-3.5-1.3c-1.6-0.4-2.9-0.8-3.7-1.1
			c-0.9-0.3-1.6-0.8-2.3-1.3c-1.3-1-2-2.5-2-4.6s0.7-3.6,2.2-4.8c1.5-1.1,3.3-1.7,5.6-1.7c1.4,0,2.8,0.2,4.2,0.7
			c1.4,0.5,2.6,1.1,3.6,2l-2,2.8c-0.7-0.6-1.6-1.1-2.7-1.5C199.2,134.6,198.1,134.4,197,134.4z"/>
		<path d="M249.2,131.5h3.8v22.2h-3.8V131.5z"/>
		<path d="M304.8,134.4c-1.1,0-2,0.2-2.7,0.7c-0.7,0.5-1,1.1-1,2c0,0.9,0.4,1.6,1,2.1c0.7,0.5,2.2,1,4.5,1.5c2.3,0.6,4,1.3,5.2,2.3
			s1.7,2.5,1.7,4.4s-0.7,3.5-2.2,4.7c-1.5,1.2-3.4,1.8-5.8,1.8c-3.5,0-6.6-1.2-9.3-3.6l2.4-2.8c2.3,2,4.6,2.9,7,2.9
			c1.2,0,2.2-0.3,2.9-0.8c0.7-0.5,1.1-1.2,1.1-2.1s-0.3-1.5-1-2s-1.8-0.9-3.5-1.3c-1.6-0.4-2.9-0.8-3.7-1.1
			c-0.8-0.3-1.6-0.8-2.3-1.3c-1.3-1-2-2.5-2-4.6s0.7-3.6,2.2-4.8c1.5-1.1,3.3-1.7,5.6-1.7c1.4,0,2.8,0.2,4.2,0.7
			c1.4,0.5,2.6,1.1,3.6,2l-2,2.8c-0.7-0.6-1.5-1.1-2.7-1.5C307,134.6,305.9,134.4,304.8,134.4z"/>
		<path d="M365.5,134.9v18.8h-3.8v-18.8h-6.8v-3.4h17.3v3.4H365.5z"/>
		<path d="M430.9,131.5v3.5H419v5.9h10.7v3.3H419v6h12.3v3.5h-16v-22.2H430.9z"/>
		<path d="M478.8,153.8H475v-22.2h5.9l6.7,14l6.7-14h5.8v22.2h-3.8v-17.4l-7.8,15.4h-2.1l-7.7-15.4v17.4H478.8z"/>
		<path d="M548.5,148.8l-2.2,5.1h-4l9.8-22.2h4l9.8,22.2h-4l-2.2-5.1H548.5z M558.1,145.3l-4-9.2l-4,9.2H558.1z"/>
		<path d="M614.6,134.4c-1.1,0-2,0.2-2.7,0.7c-0.7,0.5-1.1,1.1-1.1,2c0,0.9,0.3,1.6,1.1,2.1c0.7,0.5,2.2,1,4.5,1.5
			c2.3,0.6,4,1.3,5.2,2.3s1.7,2.5,1.7,4.4s-0.7,3.5-2.2,4.7s-3.4,1.8-5.8,1.8c-3.5,0-6.6-1.2-9.3-3.6l2.4-2.8c2.2,2,4.6,2.9,7,2.9
			c1.2,0,2.2-0.3,2.9-0.8s1.1-1.2,1.1-2.1s-0.3-1.5-1-2s-1.8-0.9-3.4-1.3c-1.6-0.4-2.9-0.8-3.7-1.1c-0.9-0.3-1.6-0.8-2.3-1.3
			c-1.3-1-2-2.5-2-4.6s0.8-3.6,2.2-4.8c1.5-1.1,3.3-1.7,5.6-1.7c1.4,0,2.8,0.2,4.2,0.7s2.6,1.1,3.6,2l-2,2.8
			c-0.7-0.6-1.6-1.1-2.7-1.5C616.8,134.6,615.7,134.4,614.6,134.4z"/>
	</g>
</g>
</svg>
